<svg width="24" height="25" viewBox="0 0 24 25" fill="none" xmlns="http://www.w3.org/2000/svg">
<path d="M9 22.5H15C20 22.5 22 20.5 22 15.5V9.5C22 4.5 20 2.5 15 2.5H9C4 2.5 2 4.5 2 9.5V15.5C2 20.5 4 22.5 9 22.5Z" fill="#C92F9B"/>
<path d="M9 23.25H15C17.574 23.25 19.5709 22.7398 20.9053 21.4053C22.2398 20.0709 22.75 18.074 22.75 15.5V9.5C22.75 6.92603 22.2398 4.92914 20.9053 3.59467C19.5709 2.2602 17.574 1.75 15 1.75H9C6.42603 1.75 4.42914 2.2602 3.09467 3.59467C1.7602 4.92914 1.25 6.92603 1.25 9.5V15.5C1.25 18.074 1.7602 20.0709 3.09467 21.4053C4.42914 22.7398 6.42603 23.25 9 23.25Z" stroke="#D9D9D9" stroke-opacity="0.8" stroke-width="1.5" stroke-linecap="round" stroke-linejoin="round"/>
<path d="M12 16.75C14.3472 16.75 16.25 14.8472 16.25 12.5C16.25 10.1528 14.3472 8.25 12 8.25C9.65279 8.25 7.75 10.1528 7.75 12.5C7.75 14.8472 9.65279 16.75 12 16.75Z" stroke="#D9D9D9" stroke-opacity="0.8" stroke-width="1.5" stroke-linecap="round" stroke-linejoin="round"/>
<path d="M17.6361 6.5C17.0838 6.5 16.6361 6.94772 16.6361 7.5C16.6361 8.05228 17.0838 8.5 17.6361 8.5H17.6477C18.2 8.5 18.6477 8.05228 18.6477 7.5C18.6477 6.94772 18.2 6.5 17.6477 6.5H17.6361Z" stroke="#D9D9D9" stroke-opacity="0.8" stroke-width="2" stroke-linecap="round" stroke-linejoin="round"/>
</svg>
