<svg width="40" height="40" viewBox="0 0 40 40" fill="none" xmlns="http://www.w3.org/2000/svg">
<path d="M20 23.3833C23.4242 23.3833 26.2 20.6074 26.2 17.1833C26.2 13.7591 23.4242 10.9833 20 10.9833C16.5759 10.9833 13.8 13.7591 13.8 17.1833C13.8 20.6074 16.5759 23.3833 20 23.3833Z" stroke="black" stroke-width="2"/>
<path opacity="0.42" d="M5.54583 14.0391L5.54572 14.0396C3.56725 22.7793 9.01124 30.1358 13.6364 34.5934L13.637 34.594C17.1966 38.0126 22.8027 38.0139 26.3469 34.5935C30.9888 30.1358 36.4329 22.7961 34.4544 14.0563C32.7601 6.57023 26.3591 2.83767 20.0066 2.83338C13.6541 2.82908 7.24878 6.55307 5.54583 14.0391Z" fill="white" stroke="black"/>
</svg>
