<svg width="40" height="40" viewBox="0 0 40 40" fill="none" xmlns="http://www.w3.org/2000/svg">
<path d="M20 0C14.6957 0 9.60859 2.10714 5.85786 5.85786C2.10714 9.60859 0 14.6957 0 20C0 25.3043 2.10714 30.3914 5.85786 34.1421C9.60859 37.8929 14.6957 40 20 40C25.3043 40 30.3914 37.8929 34.1421 34.1421C37.8929 30.3914 40 25.3043 40 20C40 14.6957 37.8929 9.60859 34.1421 5.85786C30.3914 2.10714 25.3043 0 20 0ZM25.2717 36.305H25.1167C25.0002 36.3116 24.8837 36.2943 24.7742 36.2541C24.6647 36.214 24.5646 36.1519 24.48 36.0717C24.4018 35.989 24.3409 35.8916 24.3008 35.7852C24.2608 35.6787 24.2424 35.5653 24.2467 35.4517V33.1083C24.2567 32.33 24.2633 31.5417 24.2633 30.7483C24.2606 30.1682 24.1759 29.5914 24.0117 29.035C23.8561 28.4726 23.5426 27.9665 23.1083 27.5767C24.27 27.4645 25.4119 27.2006 26.505 26.7917C27.427 26.441 28.261 25.8926 28.9483 25.185C29.6267 24.4733 30.1317 23.6133 30.4233 22.675C30.7781 21.5259 30.9469 20.3274 30.9233 19.125C30.9298 18.2855 30.783 17.4518 30.49 16.665C30.1923 15.872 29.7422 15.145 29.165 14.525C29.2896 14.2123 29.3801 13.8871 29.435 13.555C29.49 13.2217 29.5183 12.885 29.5183 12.5483C29.5183 12.115 29.4683 11.6817 29.3683 11.26C29.2775 10.8275 29.1544 10.4024 29 9.98833C28.9411 9.96535 28.8782 9.95403 28.815 9.955H28.6317C28.2483 9.95833 27.8717 10.0217 27.5083 10.14C27.1081 10.2568 26.7166 10.4016 26.3367 10.5733C25.9588 10.7427 25.591 10.9336 25.235 11.145C24.8767 11.3567 24.56 11.56 24.28 11.7483C21.4762 10.9669 18.5121 10.9669 15.7083 11.7483C15.3956 11.5393 15.0778 11.3381 14.755 11.145C14.3939 10.9318 14.0199 10.7414 13.635 10.575C13.2561 10.3976 12.8631 10.2521 12.46 10.14C12.1038 10.0223 11.7317 9.95995 11.3567 9.955H11.1733C11.1106 9.95411 11.0484 9.96544 10.99 9.98833C10.8334 10.403 10.7054 10.8279 10.6067 11.26C10.5167 11.6833 10.4733 12.115 10.4717 12.5483C10.4717 12.885 10.5 13.2217 10.5567 13.555C10.6117 13.8867 10.7 14.2117 10.8233 14.525C10.2476 15.1458 9.7992 15.8734 9.50333 16.6667C9.2088 17.4532 9.06025 18.2868 9.065 19.1267C9.04169 20.3226 9.2059 21.5149 9.55167 22.66C9.85333 23.5983 10.3567 24.46 11.025 25.1867C11.7167 25.89 12.55 26.4367 13.4683 26.7933C14.5567 27.21 15.6967 27.4767 16.8567 27.5867C16.5328 27.8802 16.2759 28.24 16.1033 28.6417C15.9392 29.0389 15.8272 29.4557 15.77 29.8817C15.1585 30.1745 14.4897 30.3281 13.8117 30.3317C13.182 30.3569 12.5606 30.1818 12.0367 29.8317C11.5341 29.4592 11.1084 28.9928 10.7833 28.4583C10.6378 28.2338 10.4751 28.021 10.2967 27.8217C10.1084 27.6121 9.90082 27.4207 9.67667 27.25C9.45573 27.0849 9.21355 26.9504 8.95667 26.85C8.70392 26.7392 8.43097 26.6819 8.155 26.6817C8.08833 26.6833 8.02167 26.69 7.955 26.6983C7.86396 26.698 7.77324 26.7092 7.685 26.7317C7.60745 26.752 7.5341 26.7858 7.46833 26.8317C7.43843 26.8481 7.41343 26.8722 7.39587 26.9015C7.3783 26.9308 7.3688 26.9642 7.36833 26.9983C7.37533 27.0785 7.39986 27.1562 7.44018 27.2259C7.48049 27.2956 7.53562 27.3556 7.60167 27.4017C7.75667 27.525 7.885 27.62 7.98833 27.6867L8.03833 27.7217C8.26 27.8933 8.47333 28.0783 8.675 28.2767C8.86167 28.44 9.03 28.625 9.175 28.8267C9.325 29.025 9.455 29.2367 9.56 29.4617C9.68167 29.685 9.81 29.9417 9.945 30.2333C10.2583 31.0233 10.815 31.6917 11.535 32.1417C12.29 32.5467 13.1367 32.7483 13.995 32.7267C14.285 32.7267 14.5767 32.71 14.865 32.6767C15.1517 32.63 15.4367 32.5817 15.7233 32.525V35.43C15.7285 35.5471 15.7089 35.664 15.6659 35.7731C15.6228 35.8821 15.5572 35.9808 15.4733 36.0628C15.3895 36.1448 15.2893 36.2081 15.1793 36.2487C15.0693 36.2893 14.952 36.3062 14.835 36.2983H14.7317C10.8451 35.0428 7.53444 32.4408 5.39595 28.961C3.25745 25.4812 2.43161 21.3523 3.06713 17.3176C3.70266 13.283 5.75779 9.60784 8.86245 6.95393C11.9671 4.30003 15.9173 2.84179 20.0017 2.84179C24.086 2.84179 28.0362 4.30003 31.1409 6.95393C34.2455 9.60784 36.3007 13.283 36.9362 17.3176C37.5717 21.3523 36.7459 25.4812 34.6074 28.961C32.4689 32.4408 29.1583 35.0428 25.2717 36.2983V36.305Z" fill="white"/>
</svg>
